# xmcd CD database file
#
# Track frame offsets:
#	150
#	18117
#	30745
#	44762
#	57002
#	76801
#	94144
#	109907
#	119812
#	139582
#	154862
#	171928
#	186168
#
# Disc length: 2720 seconds
#
# Revision: 0
# Processed by: cddbd v1.5.1PL2 Copyright (c) Steve Scherf et al.
# Submitted via: CDex 1.51
#
DISCID=ac0a9e0d
DTITLE=Souls 'n' Stone - Your Songs
DYEAR=2002
DGENRE=Country
TTITLE0=Your song
TTITLE1=Hillbilly shoes
TTITLE2=Golden ring
TTITLE3=Crazy
TTITLE4=Smoke rings in the dark
TTITLE5=My kind of woman
TTITLE6=You don't, You won't
TTITLE7=If I could make a living out of loving you
TTITLE8=I swear
TTITLE9=Stand by your man
TTITLE10=Kick a little
TTITLE11=He drinks Tequila
TTITLE12=Let's make love
EXTD=YEAR: 2002
EXTT0=
EXTT1=
EXTT2=
EXTT3=
EXTT4=
EXTT5=
EXTT6=
EXTT7=
EXTT8=
EXTT9=
EXTT10=
EXTT11=
EXTT12=
PLAYORDER=
